<svg version="1.1" id="Layer_1" xmlns="http://www.w3.org/2000/svg" xmlns:xlink="http://www.w3.org/1999/xlink" x="0px" y="0px"
	 width="100%" viewBox="0 0 1061 1061" enable-background="new 0 0 1061 1061" xml:space="preserve">
<path fill="#39D353" opacity="1.000000" stroke="none" 
	d="
M626.000000,1062.000000 
	C417.357788,1062.000000 209.215576,1062.000000 1.036683,1062.000000 
	C1.036683,708.399353 1.036683,354.798676 1.036683,1.099007 
	C354.559113,1.099007 708.118225,1.099007 1061.838623,1.099007 
	C1061.838623,354.666595 1061.838623,708.333313 1061.838623,1062.000000 
	C916.798279,1062.000000 771.649109,1062.000000 626.000000,1062.000000 
M621.578552,801.888000 
	C601.702087,801.888000 581.825562,801.888000 561.936401,801.888000 
	C561.936401,822.331055 561.936401,842.007202 561.936401,861.971985 
	C581.938904,861.971985 601.515808,861.971985 621.294067,862.895691 
	C621.294067,882.503174 621.294067,902.110657 621.294067,921.869080 
	C641.959656,921.869080 661.710449,921.869080 681.674805,921.869080 
	C681.674805,901.853638 681.674805,882.137878 681.674805,862.114136 
	C661.389771,862.114136 641.428528,862.114136 621.743469,861.189880 
	C621.774292,846.139465 621.767273,831.088745 621.858704,816.038696 
	C621.886658,811.436951 622.184875,806.836853 623.173706,802.038574 
	C642.600525,802.038574 662.027405,802.038574 681.702271,802.038574 
	C681.702271,781.772339 681.702271,762.071960 681.702271,742.290466 
	C661.567810,742.290466 641.733459,742.290466 621.615967,742.290466 
	C621.615967,762.036865 621.608521,781.329651 621.652344,800.622437 
	C621.653687,801.196899 622.193726,801.770264 621.578552,801.888000 
M200.016388,861.983704 
	C180.418655,861.983704 160.820923,861.983704 141.283478,861.983704 
	C141.283478,882.438538 141.283478,902.153076 141.283478,921.699036 
	C161.458450,921.699036 181.181732,921.699036 200.837616,921.699036 
	C200.837616,901.424866 200.837616,881.617004 201.773895,862.138916 
	C221.487396,862.138916 241.200912,862.138916 260.700684,862.138916 
	C260.700684,841.511841 260.700684,821.804810 260.700684,802.149353 
	C240.449203,802.149353 220.662262,802.149353 201.155289,801.229675 
	C201.155289,781.621643 201.155289,762.013611 201.155289,742.161072 
	C180.820969,742.161072 161.102371,742.161072 141.212097,742.161072 
	C141.212097,762.193604 141.212097,781.898132 141.212097,802.030457 
	C161.386536,802.030457 181.186340,802.030457 201.000107,802.950256 
	C200.981720,822.607300 200.963348,842.264282 200.016388,861.983704 
M441.865143,802.061096 
	C461.755371,802.061096 481.645569,802.061096 501.501282,802.061096 
	C501.501282,781.530273 501.501282,761.951172 501.501282,742.255737 
	C481.300964,742.255737 461.443665,742.255737 441.037109,742.255737 
	C441.037109,762.469482 441.037109,782.260193 440.107422,801.890930 
	C420.569153,801.890930 401.030914,801.890930 381.530792,801.890930 
	C381.530792,822.566772 381.530792,842.339783 380.530518,862.021301 
	C360.785126,862.021301 341.039734,862.021301 321.261810,862.021301 
	C321.261810,882.366394 321.261810,901.960693 321.261810,921.752686 
	C341.366425,921.752686 361.206146,921.752686 381.508087,921.752686 
	C381.508087,918.867065 381.492157,916.391968 381.510590,913.917114 
	C381.639496,896.601990 381.775482,879.286804 382.850677,862.114685 
	C402.265106,862.114685 421.679535,862.114685 441.491638,862.114685 
	C441.491638,844.820679 441.522186,828.339966 441.465942,811.859558 
	C441.454620,808.556519 441.113007,805.254700 441.865143,802.061096 
M741.923157,441.540375 
	C741.923157,461.456299 741.923157,481.372223 741.923157,501.459229 
	C762.226685,501.459229 781.923218,501.459229 801.568787,501.459229 
	C801.568787,481.216095 801.568787,461.355438 801.568787,441.161346 
	C790.169800,441.161346 779.199036,441.218475 768.229126,441.143097 
	C759.596558,441.083801 750.965088,440.861053 742.073975,439.843414 
	C742.073975,420.441467 742.073975,401.039520 742.073975,381.934753 
	C741.006409,381.515472 740.706970,381.295105 740.407288,381.294708 
	C701.966064,381.243134 663.524841,381.236633 625.083801,381.122681 
	C621.574768,381.112274 621.491699,383.103760 621.496765,385.622345 
	C621.523376,398.769623 621.462219,411.917206 621.525940,425.064240 
	C621.551636,430.369904 621.817139,435.674408 621.040833,441.043152 
	C603.066650,441.083649 585.091003,441.256317 567.119263,441.068207 
	C562.822449,441.023224 561.404663,442.097687 561.416016,446.589447 
	C561.559021,503.179352 561.556274,559.769897 561.419250,616.359802 
	C561.408569,620.775513 562.696472,621.979919 567.068481,621.936523 
	C585.372681,621.754639 603.680725,621.951416 621.663452,622.896240 
	C621.663452,642.462036 621.663452,662.027832 621.663452,681.734680 
	C682.106812,681.734680 741.831360,681.734680 801.733887,681.734680 
	C801.733887,661.617065 801.733887,641.766357 801.733887,621.508972 
	C799.487122,621.508972 797.669128,621.509033 795.851135,621.509033 
	C739.714966,621.509033 683.578857,621.504456 627.442688,621.528931 
	C625.631592,621.529724 623.820679,621.827759 621.955200,621.052429 
	C621.915405,567.358521 621.869080,513.664612 621.844604,459.970734 
	C621.841675,453.655884 621.958435,447.341003 622.905945,441.343201 
	C661.664856,441.388458 700.423706,441.440826 739.182617,441.442230 
	C740.267578,441.442261 741.352539,440.897552 741.923157,441.540375 
M862.770203,321.155273 
	C882.379700,321.155273 901.989197,321.155273 921.838989,321.155273 
	C921.838989,260.818665 921.838989,201.101517 921.838989,141.214325 
	C901.805115,141.214325 882.099121,141.214325 861.969360,141.214325 
	C861.969360,201.390518 861.969360,261.188263 861.049561,321.000122 
	C841.351624,321.015411 821.653687,321.030701 802.110840,320.113953 
	C802.110840,300.534241 802.110840,280.954498 802.110840,261.451599 
	C661.418579,261.451599 521.443787,261.451599 381.513489,261.451599 
	C381.513489,281.486542 381.513489,301.068848 381.513489,321.165375 
	C384.156128,321.165375 386.453308,321.165375 388.750488,321.165375 
	C524.357300,321.165375 659.964172,321.166382 795.570984,321.156342 
	C797.731750,321.156189 799.892578,321.020508 801.962219,321.888702 
	C801.962219,341.618378 801.962219,361.348053 801.962219,381.491608 
	C819.563843,381.491608 836.354492,381.519196 853.144958,381.465729 
	C856.109924,381.456268 859.073792,381.108276 861.939209,381.859955 
	C861.939209,481.770325 861.939209,581.680725 861.939209,681.615051 
	C882.388550,681.615051 902.108276,681.615051 921.748291,681.615051 
	C921.748291,581.355591 921.748291,481.480896 921.748291,381.031036 
	C901.536804,381.031036 881.739197,381.031036 862.107361,380.103821 
	C862.021729,360.360931 861.936096,340.618073 862.770203,321.155273 
M441.620026,440.433319 
	C441.620026,420.831390 441.620026,401.229492 441.620026,381.448578 
	C381.032593,381.448578 321.309937,381.448578 261.376343,381.448578 
	C261.376343,481.720795 261.376343,581.702515 261.376343,681.720215 
	C321.485931,681.720215 381.215698,681.720215 441.512543,681.720215 
	C441.512543,679.316040 441.501129,677.180359 441.514343,675.044739 
	C441.624390,657.230286 441.739014,639.415894 442.795624,621.774780 
	C462.362244,621.774780 481.928894,621.774780 501.494629,621.774780 
	C501.494629,561.196533 501.494629,501.472656 501.494629,441.398926 
	C481.386719,441.398926 461.616669,441.398926 441.620026,440.433319 
M321.165009,213.500061 
	C321.165009,189.415848 321.165009,165.331635 321.165009,141.225479 
	C260.673553,141.225479 200.963898,141.225479 141.225464,141.225479 
	C141.225464,201.326431 141.225464,261.036072 141.225464,320.774536 
	C201.326416,320.774536 261.036072,320.774536 321.165009,320.774536 
	C321.165009,285.090515 321.165009,249.795288 321.165009,213.500061 
M822.500061,741.834961 
	C795.749939,741.834961 768.999817,741.834961 742.224670,741.834961 
	C742.224670,802.324951 742.224670,862.034607 742.224670,921.775391 
	C802.324890,921.775391 862.034546,921.775391 921.775391,921.775391 
	C921.775391,861.675171 921.775391,801.965515 921.775391,741.834961 
	C888.758423,741.834961 856.129272,741.834961 822.500061,741.834961 
M154.512527,381.162262 
	C150.077591,381.162262 145.642654,381.162262 141.127502,381.162262 
	C141.127502,441.703094 141.127502,501.448639 141.127502,561.515625 
	C161.138367,561.515625 180.854965,561.515625 200.774628,561.515625 
	C200.774628,501.347809 200.774628,441.497284 200.774628,381.162262 
	C185.427628,381.162262 170.467743,381.162262 154.512527,381.162262 
M678.308105,140.839554 
	C619.584778,140.839554 560.861450,140.839554 501.885071,140.839554 
	C501.885071,161.202164 501.885071,180.898880 501.885071,200.741272 
	C562.070129,200.741272 621.877625,200.741272 681.991333,200.741272 
	C681.991333,181.522049 682.034363,162.724686 681.875305,143.929016 
	C681.866577,142.896439 680.176819,141.878082 678.308105,140.839554 
M381.161346,164.500000 
	C381.161346,176.582977 381.161346,188.665955 381.161346,200.775543 
	C401.630859,200.775543 421.326660,200.775543 441.118408,200.775543 
	C441.118408,180.673904 441.118408,160.966644 441.118408,141.234344 
	C421.026001,141.234344 401.326080,141.234344 381.161346,141.234344 
	C381.161346,148.920273 381.161346,156.210159 381.161346,164.500000 
M173.500275,621.508118 
	C162.768845,621.508118 152.037399,621.508118 141.139420,621.508118 
	C141.139420,642.068054 141.139420,661.769592 141.139420,681.564819 
	C161.263962,681.564819 181.081100,681.564819 200.768250,681.564819 
	C200.768250,661.412598 200.768250,641.696960 200.768250,621.507996 
	C191.752899,621.507996 183.126602,621.507996 173.500275,621.508118 
M767.500061,140.834991 
	C759.078369,140.834991 750.656677,140.834991 742.224976,140.834991 
	C742.224976,161.327652 742.224976,181.037781 742.224976,200.775116 
	C762.327454,200.775116 782.037598,200.775116 801.775208,200.775116 
	C801.775208,180.672684 801.775208,160.962555 801.775208,140.834976 
	C790.426697,140.834976 779.463440,140.834976 767.500061,140.834991 
z"/>
<path fill="#010D23" opacity="1.000000" stroke="none" 
	d="
M441.852234,621.601440 
	C441.739014,639.415894 441.624390,657.230286 441.514343,675.044739 
	C441.501129,677.180359 441.512543,679.316040 441.512543,681.720215 
	C381.215698,681.720215 321.485931,681.720215 261.376343,681.720215 
	C261.376343,581.702515 261.376343,481.720795 261.376343,381.448578 
	C321.309937,381.448578 381.032593,381.448578 441.620026,381.448578 
	C441.620026,401.229492 441.620026,420.831390 441.663513,441.011078 
	C441.706970,441.588837 441.394348,441.941376 440.918182,441.796631 
	C402.784241,441.605652 365.125916,441.647247 327.469360,441.407257 
	C322.500336,441.375610 321.025238,442.584686 321.044128,447.764221 
	C321.247345,503.586121 321.246979,559.409363 321.044556,615.231201 
	C321.025818,620.403137 322.488525,621.621765 327.464783,621.594299 
	C363.623413,621.394287 399.783691,621.492920 435.943420,621.468506 
	C437.760498,621.467224 439.577393,621.201599 441.476044,621.144897 
	C441.557709,621.230652 441.852234,621.601440 441.852234,621.601440 
z"/>
<path fill="#010B23" opacity="1.000000" stroke="none" 
	d="
M321.165009,214.000061 
	C321.165009,249.795288 321.165009,285.090515 321.165009,320.774536 
	C261.036072,320.774536 201.326416,320.774536 141.225464,320.774536 
	C141.225464,261.036072 141.225464,201.326431 141.225464,141.225479 
	C200.963898,141.225479 260.673553,141.225479 321.165009,141.225479 
	C321.165009,165.331635 321.165009,189.415848 321.165009,214.000061 
M252.417068,201.160950 
	C235.491089,201.160950 218.565094,201.160950 201.540344,201.160950 
	C201.540344,221.505463 201.540344,241.063477 201.540344,260.655945 
	C221.490051,260.655945 241.058319,260.655945 260.642670,260.655945 
	C260.642670,240.744919 260.642670,221.184250 260.642670,201.160965 
	C257.986542,201.160965 255.686722,201.160965 252.417068,201.160950 
z"/>
<path fill="#010B23" opacity="1.000000" stroke="none" 
	d="
M823.000122,741.834961 
	C856.129272,741.834961 888.758423,741.834961 921.775391,741.834961 
	C921.775391,801.965515 921.775391,861.675171 921.775391,921.775391 
	C862.034546,921.775391 802.324890,921.775391 742.224670,921.775391 
	C742.224670,862.034607 742.224670,802.324951 742.224670,741.834961 
	C768.999817,741.834961 795.749939,741.834961 823.000122,741.834961 
M825.500000,801.999023 
	C817.894348,801.999023 810.288696,801.999023 802.604614,801.999023 
	C802.604614,822.337158 802.604614,842.028259 802.604614,861.598511 
	C822.610474,861.598511 842.174255,861.598511 861.687256,861.598511 
	C861.687256,841.610535 861.687256,822.026550 861.687256,801.999023 
	C849.752563,801.999023 838.126282,801.999023 825.500000,801.999023 
z"/>
<path fill="#010B23" opacity="1.000000" stroke="none" 
	d="
M802.053345,320.948090 
	C799.892578,321.020508 797.731750,321.156189 795.570984,321.156342 
	C659.964172,321.166382 524.357300,321.165375 388.750488,321.165375 
	C386.453308,321.165375 384.156128,321.165375 381.513489,321.165375 
	C381.513489,301.068848 381.513489,281.486542 381.513489,261.451599 
	C521.443787,261.451599 661.418579,261.451599 802.110840,261.451599 
	C802.110840,280.954498 802.110840,300.534241 802.057617,320.555420 
	C802.004333,320.996887 802.053345,320.948090 802.053345,320.948090 
z"/>
<path fill="#010B23" opacity="1.000000" stroke="none" 
	d="
M861.941589,381.031036 
	C881.739197,381.031036 901.536804,381.031036 921.748291,381.031036 
	C921.748291,481.480896 921.748291,581.355591 921.748291,681.615051 
	C902.108276,681.615051 882.388550,681.615051 861.939209,681.615051 
	C861.939209,581.680725 861.939209,481.770325 861.966309,381.418396 
	C861.993347,380.976868 861.941589,381.031036 861.941589,381.031036 
z"/>
<path fill="#010B23" opacity="1.000000" stroke="none" 
	d="
M441.394348,441.941376 
	C441.394348,441.941376 441.706970,441.588837 441.776794,441.493896 
	C461.616669,441.398926 481.386719,441.398926 501.494629,441.398926 
	C501.494629,501.472656 501.494629,561.196533 501.494629,621.774780 
	C481.928894,621.774780 462.362244,621.774780 442.323914,621.688110 
	C441.852234,621.601440 441.557709,621.230652 441.390869,620.679199 
	C441.206757,561.558655 441.188568,502.989685 441.181488,444.420685 
	C441.181366,443.594238 441.320312,442.767822 441.394348,441.941376 
z"/>
<path fill="#010B23" opacity="1.000000" stroke="none" 
	d="
M622.019653,441.026123 
	C621.958435,447.341003 621.841675,453.655884 621.844604,459.970734 
	C621.869080,513.664612 621.915405,567.358521 621.977600,621.526245 
	C622.000000,622.000000 621.987305,622.009460 621.987305,622.009460 
	C603.680725,621.951416 585.372681,621.754639 567.068481,621.936523 
	C562.696472,621.979919 561.408569,620.775513 561.419250,616.359802 
	C561.556274,559.769897 561.559021,503.179352 561.416016,446.589447 
	C561.404663,442.097687 562.822449,441.023224 567.119263,441.068207 
	C585.091003,441.256317 603.066650,441.083649 621.518799,441.023163 
	C621.996704,441.003174 622.019653,441.026123 622.019653,441.026123 
z"/>
<path fill="#010C23" opacity="1.000000" stroke="none" 
	d="
M155.010193,381.162262 
	C170.467743,381.162262 185.427628,381.162262 200.774628,381.162262 
	C200.774628,441.497284 200.774628,501.347809 200.774628,561.515625 
	C180.854965,561.515625 161.138367,561.515625 141.127502,561.515625 
	C141.127502,501.448639 141.127502,441.703094 141.127502,381.162262 
	C145.642654,381.162262 150.077591,381.162262 155.010193,381.162262 
z"/>
<path fill="#010B23" opacity="1.000000" stroke="none" 
	d="
M861.969360,320.985992 
	C861.969360,261.188263 861.969360,201.390518 861.969360,141.214325 
	C882.099121,141.214325 901.805115,141.214325 921.838989,141.214325 
	C921.838989,201.101517 921.838989,260.818665 921.838989,321.155273 
	C901.989197,321.155273 882.379700,321.155273 862.340698,321.042297 
	C861.911133,320.929291 861.969360,320.985992 861.969360,320.985992 
z"/>
<path fill="#010B23" opacity="1.000000" stroke="none" 
	d="
M678.788818,140.846329 
	C680.176819,141.878082 681.866577,142.896439 681.875305,143.929016 
	C682.034363,162.724686 681.991333,181.522049 681.991333,200.741272 
	C621.877625,200.741272 562.070129,200.741272 501.885071,200.741272 
	C501.885071,180.898880 501.885071,161.202164 501.885071,140.839554 
	C560.861450,140.839554 619.584778,140.839554 678.788818,140.846329 
z"/>
<path fill="#010B23" opacity="1.000000" stroke="none" 
	d="
M622.004822,621.993652 
	C623.820679,621.827759 625.631592,621.529724 627.442688,621.528931 
	C683.578857,621.504456 739.714966,621.509033 795.851135,621.509033 
	C797.669128,621.509033 799.487122,621.508972 801.733887,621.508972 
	C801.733887,641.766357 801.733887,661.617065 801.733887,681.734680 
	C741.831360,681.734680 682.106812,681.734680 621.663452,681.734680 
	C621.663452,662.027832 621.663452,642.462036 621.825378,622.452881 
	C621.987305,622.009460 622.000000,622.000000 622.004822,621.993652 
z"/>
<path fill="#010C23" opacity="1.000000" stroke="none" 
	d="
M742.437500,440.606873 
	C741.352539,440.897552 740.267578,441.442261 739.182617,441.442230 
	C700.423706,441.440826 661.664856,441.388458 622.462769,441.184662 
	C622.019653,441.026123 621.996704,441.003174 621.985107,440.991333 
	C621.817139,435.674408 621.551636,430.369904 621.525940,425.064240 
	C621.462219,411.917206 621.523376,398.769623 621.496765,385.622345 
	C621.491699,383.103760 621.574768,381.112274 625.083801,381.122681 
	C663.524841,381.236633 701.966064,381.243134 740.407288,381.294708 
	C740.706970,381.295105 741.006409,381.515472 742.073975,381.934753 
	C742.073975,401.039520 742.073975,420.441467 742.228149,440.249634 
	C742.382263,440.655853 742.437500,440.606873 742.437500,440.606873 
z"/>
<path fill="#010C23" opacity="1.000000" stroke="none" 
	d="
M621.467224,862.114136 
	C641.428528,862.114136 661.389771,862.114136 681.674805,862.114136 
	C681.674805,882.137878 681.674805,901.853638 681.674805,921.869080 
	C661.710449,921.869080 641.959656,921.869080 621.294067,921.869080 
	C621.294067,902.110657 621.294067,882.503174 621.288696,862.464844 
	C621.283325,862.034058 621.467224,862.114136 621.467224,862.114136 
z"/>
<path fill="#010C23" opacity="1.000000" stroke="none" 
	d="
M381.909210,861.971680 
	C381.775482,879.286804 381.639496,896.601990 381.510590,913.917114 
	C381.492157,916.391968 381.508087,918.867065 381.508087,921.752686 
	C361.206146,921.752686 341.366425,921.752686 321.261810,921.752686 
	C321.261810,901.960693 321.261810,882.366394 321.261810,862.021301 
	C341.039734,862.021301 360.785126,862.021301 381.121735,862.027222 
	C381.712952,862.033142 381.909210,861.971680 381.909210,861.971680 
z"/>
<path fill="#010C23" opacity="1.000000" stroke="none" 
	d="
M742.357666,440.683380 
	C750.965088,440.861053 759.596558,441.083801 768.229126,441.143097 
	C779.199036,441.218475 790.169800,441.161346 801.568787,441.161346 
	C801.568787,461.355438 801.568787,481.216095 801.568787,501.459229 
	C781.923218,501.459229 762.226685,501.459229 741.923157,501.459229 
	C741.923157,481.372223 741.923157,461.456299 742.180298,441.073608 
	C742.437500,440.606873 742.382263,440.655853 742.357666,440.683380 
z"/>
<path fill="#010D23" opacity="1.000000" stroke="none" 
	d="
M441.037109,802.050903 
	C441.037109,782.260193 441.037109,762.469482 441.037109,742.255737 
	C461.443665,742.255737 481.300964,742.255737 501.501282,742.255737 
	C501.501282,761.951172 501.501282,781.530273 501.501282,802.061096 
	C481.645569,802.061096 461.755371,802.061096 441.424957,802.028870 
	C440.984772,801.996643 441.037109,802.050903 441.037109,802.050903 
z"/>
<path fill="#010C23" opacity="1.000000" stroke="none" 
	d="
M381.161346,164.000015 
	C381.161346,156.210159 381.161346,148.920273 381.161346,141.234344 
	C401.326080,141.234344 421.026001,141.234344 441.118408,141.234344 
	C441.118408,160.966644 441.118408,180.673904 441.118408,200.775543 
	C421.326660,200.775543 401.630859,200.775543 381.161346,200.775543 
	C381.161346,188.665955 381.161346,176.582977 381.161346,164.000015 
z"/>
<path fill="#010B23" opacity="1.000000" stroke="none" 
	d="
M200.986145,802.030457 
	C181.186340,802.030457 161.386536,802.030457 141.212097,802.030457 
	C141.212097,781.898132 141.212097,762.193604 141.212097,742.161072 
	C161.102371,742.161072 180.820969,742.161072 201.155289,742.161072 
	C201.155289,762.013611 201.155289,781.621643 201.042358,801.659180 
	C200.929428,802.088684 200.986145,802.030457 200.986145,802.030457 
z"/>
<path fill="#010B23" opacity="1.000000" stroke="none" 
	d="
M200.837616,861.809143 
	C200.837616,881.617004 200.837616,901.424866 200.837616,921.699036 
	C181.181732,921.699036 161.458450,921.699036 141.283478,921.699036 
	C141.283478,902.153076 141.283478,882.438538 141.283478,861.983704 
	C160.820923,861.983704 180.418655,861.983704 200.455048,861.927673 
	C200.893707,861.871643 200.837616,861.809143 200.837616,861.809143 
z"/>
<path fill="#010B23" opacity="1.000000" stroke="none" 
	d="
M621.605347,861.651978 
	C621.467224,862.114136 621.283325,862.034058 621.188049,862.003052 
	C601.515808,861.971985 581.938904,861.971985 561.936401,861.971985 
	C561.936401,842.007202 561.936401,822.331055 561.936401,801.888000 
	C581.825562,801.888000 601.702087,801.888000 621.996216,802.093018 
	C622.413879,802.298096 622.359253,802.235962 622.359253,802.235962 
	C622.184875,806.836853 621.886658,811.436951 621.858704,816.038696 
	C621.767273,831.088745 621.774292,846.139465 621.605347,861.651978 
z"/>
<path fill="#010B23" opacity="1.000000" stroke="none" 
	d="
M382.379944,862.043213 
	C381.909210,861.971680 381.712952,862.033142 381.621887,862.072998 
	C381.530792,842.339783 381.530792,822.566772 381.530792,801.890930 
	C401.030914,801.890930 420.569153,801.890930 440.572266,801.970947 
	C441.037109,802.050903 440.984772,801.996643 440.954224,801.974487 
	C441.113007,805.254700 441.454620,808.556519 441.465942,811.859558 
	C441.522186,828.339966 441.491638,844.820679 441.491638,862.114685 
	C421.679535,862.114685 402.265106,862.114685 382.379944,862.043213 
z"/>
<path fill="#010B23" opacity="1.000000" stroke="none" 
	d="
M200.902374,802.119019 
	C220.662262,802.149353 240.449203,802.149353 260.700684,802.149353 
	C260.700684,821.804810 260.700684,841.511841 260.700684,862.138916 
	C241.200912,862.138916 221.487396,862.138916 201.305756,861.973999 
	C200.837616,861.809143 200.893707,861.871643 200.919342,861.896484 
	C200.963348,842.264282 200.981720,822.607300 200.993134,802.490356 
	C200.986145,802.030457 200.929428,802.088684 200.902374,802.119019 
z"/>
<path fill="#010B23" opacity="1.000000" stroke="none" 
	d="
M622.448242,802.321106 
	C622.193726,801.770264 621.653687,801.196899 621.652344,800.622437 
	C621.608521,781.329651 621.615967,762.036865 621.615967,742.290466 
	C641.733459,742.290466 661.567810,742.290466 681.702271,742.290466 
	C681.702271,762.071960 681.702271,781.772339 681.702271,802.038574 
	C662.027405,802.038574 642.600525,802.038574 622.766479,802.137268 
	C622.359253,802.235962 622.413879,802.298096 622.448242,802.321106 
z"/>
<path fill="#010B23" opacity="1.000000" stroke="none" 
	d="
M174.000290,621.508057 
	C183.126602,621.507996 191.752899,621.507996 200.768250,621.507996 
	C200.768250,641.696960 200.768250,661.412598 200.768250,681.564819 
	C181.081100,681.564819 161.263962,681.564819 141.139420,681.564819 
	C141.139420,661.769592 141.139420,642.068054 141.139420,621.508118 
	C152.037399,621.508118 162.768845,621.508118 174.000290,621.508057 
z"/>
<path fill="#010B23" opacity="1.000000" stroke="none" 
	d="
M768.000122,140.834991 
	C779.463440,140.834976 790.426697,140.834976 801.775208,140.834976 
	C801.775208,160.962555 801.775208,180.672684 801.775208,200.775116 
	C782.037598,200.775116 762.327454,200.775116 742.224976,200.775116 
	C742.224976,181.037781 742.224976,161.327652 742.224976,140.834991 
	C750.656677,140.834991 759.078369,140.834991 768.000122,140.834991 
z"/>
<path fill="#010B23" opacity="1.000000" stroke="none" 
	d="
M861.880798,320.902222 
	C861.936096,340.618073 862.021729,360.360931 862.024475,380.567444 
	C861.941589,381.031036 861.993347,380.976868 862.015747,380.946747 
	C859.073792,381.108276 856.109924,381.456268 853.144958,381.465729 
	C836.354492,381.519196 819.563843,381.491608 801.962219,381.491608 
	C801.962219,361.348053 801.962219,341.618378 802.007812,321.418396 
	C802.053345,320.948090 802.004333,320.996887 801.980042,321.021454 
	C821.653687,321.030701 841.351624,321.015411 861.509460,320.993042 
	C861.969360,320.985992 861.911133,320.929291 861.880798,320.902222 
z"/>
<path fill="#39D353" opacity="1.000000" stroke="none" 
	d="
M440.918182,441.796631 
	C441.320312,442.767822 441.181366,443.594238 441.181488,444.420685 
	C441.188568,502.989685 441.206757,561.558655 441.309204,620.593384 
	C439.577393,621.201599 437.760498,621.467224 435.943420,621.468506 
	C399.783691,621.492920 363.623413,621.394287 327.464783,621.594299 
	C322.488525,621.621765 321.025818,620.403137 321.044556,615.231201 
	C321.246979,559.409363 321.247345,503.586121 321.044128,447.764221 
	C321.025238,442.584686 322.500336,441.375610 327.469360,441.407257 
	C365.125916,441.647247 402.784241,441.605652 440.918182,441.796631 
z"/>
<path fill="#39D153" opacity="1.000000" stroke="none" 
	d="
M252.901978,201.160950 
	C255.686722,201.160965 257.986542,201.160965 260.642670,201.160965 
	C260.642670,221.184250 260.642670,240.744919 260.642670,260.655945 
	C241.058319,260.655945 221.490051,260.655945 201.540344,260.655945 
	C201.540344,241.063477 201.540344,221.505463 201.540344,201.160950 
	C218.565094,201.160950 235.491089,201.160950 252.901978,201.160950 
z"/>
<path fill="#39D353" opacity="1.000000" stroke="none" 
	d="
M826.000000,801.999023 
	C838.126282,801.999023 849.752563,801.999023 861.687256,801.999023 
	C861.687256,822.026550 861.687256,841.610535 861.687256,861.598511 
	C842.174255,861.598511 822.610474,861.598511 802.604614,861.598511 
	C802.604614,842.028259 802.604614,822.337158 802.604614,801.999023 
	C810.288696,801.999023 817.894348,801.999023 826.000000,801.999023 
z"/>
</svg>